# xmcd CD database file
#
# Track frame offsets:
#	150
#	11792
#	24277
#	33952
#	47085
#	56980
#	67395
#	78232
#	90950
#	103935
#	114837
#	126425
#	138345
#	149550
#	161642
#	173265
#	185570
#	197225
#	211350
#	222995
#	234972
#	247222
#	259795
#	272207
#	283355
#	294400
#	305887
#	318075
#	329195
#	341195
#
# Disc length: 4701 seconds
#
# Revision: 4
# Processed by: cddbd v1.5.2PL0 Copyright (c) Steve Scherf et al.
# Submitted via: CDex 1.70beta2
#
DISCID=dd125b1e
DTITLE=Hank Thompson - Hank Thompson and His Brazos Valley Boys CD 2
DYEAR=1996
DGENRE=Country
TTITLE0=Take A Look At This Broken Heart Of Mine
TTITLE1=Give A Little Take A Little
TTITLE2=Cat Has Nine Lives
TTITLE3=Beautiful Texas
TTITLE4=Daddy Blues
TTITLE5=How Do You Feel
TTITLE6=New Rovin' Gambler
TTITLE7=Humpty Dumpty Boogie
TTITLE8=Can't Feel At Home In This World Anymore
TTITLE9=When God Calls His Children Home
TTITLE10=If I Cry
TTITLE11=Broken Heart and A Glass Of Beer
TTITLE12=Devil In My Angel's Eyes
TTITLE13=Playin' Possum
TTITLE14=Where Is Your Heart Tonight
TTITLE15=Those Things Money Can't Buy
TTITLE16=Hangover Heart
TTITLE17=I Ain't Cryin' Over You
TTITLE18=You Were The Cause (Of It All)
TTITLE19=I'll Be Your Sweetheart For A Day
TTITLE20=Love Thief
TTITLE21=Teardrops On The Tea Leaves
TTITLE22=Wild Side Of Life
TTITLE23=Waiting In The Lobby Of Your Heart
TTITLE24=Don't Make Me Cry Again
TTITLE25=Cryin' In The Deep Blue Sea
TTITLE26=New Wears Off Too Fast
TTITLE27=You're Walking On My Heart
TTITLE28=It's Better To Have Loved A Little
TTITLE29=How Cold Hearted Can You Get
EXTD=Volume #2 of a 12-CD Box Set - BCD 15904 LK YEAR: 1996
EXTT0=
EXTT1=
EXTT2=
EXTT3=
EXTT4=
EXTT5=
EXTT6=
EXTT7=
EXTT8=
EXTT9=
EXTT10=
EXTT11=
EXTT12=
EXTT13=
EXTT14=
EXTT15=
EXTT16=
EXTT17=
EXTT18=
EXTT19=
EXTT20=
EXTT21=
EXTT22=
EXTT23=
EXTT24=
EXTT25=
EXTT26=
EXTT27=
EXTT28=
EXTT29=
PLAYORDER=
